<?xml version="1.0" encoding="iso-8859-1"?>
<!-- Generator: Adobe Illustrator 19.0.0, SVG Export Plug-In . SVG Version: 6.00 Build 0)  -->
<svg version="1.1" id="Capa_1" xmlns="http://www.w3.org/2000/svg" xmlns:xlink="http://www.w3.org/1999/xlink" x="0px" y="0px"
	 viewBox="0 0 511.868 511.868" style="enable-background:new 0 0 511.868 511.868;" xml:space="preserve">
<rect x="27.994" y="387.384" style="fill:#656D78;" width="239.93" height="15.996"/>
<rect x="3.999" y="403.384" style="fill:#965353;" width="287.92" height="23.993"/>
<g style="opacity:0.2;">
	<rect x="27.994" y="395.384" width="239.93" height="7.998"/>
</g>
<g style="opacity:0.2;">
	<rect x="27.994" y="387.384" style="fill:#FFFFFF;" width="15.996" height="7.998"/>
</g>
<g style="opacity:0.2;">
	<rect x="3.999" y="403.384" style="fill:#FFFFFF;" width="15.996" height="23.993"/>
</g>
<g style="opacity:0.2;">
	<rect x="275.924" y="403.384" style="fill:#FFFFFF;" width="15.996" height="23.993"/>
</g>
<g style="opacity:0.2;">
	<rect x="251.934" y="387.384" width="15.992" height="7.998"/>
</g>
<path style="fill:#7F4545;" d="M499.893,397.542L248.332,249.071l-16.059,27.667l251.561,148.477
	c7.646,4.428,17.433,1.835,21.869-5.812C510.132,411.765,507.524,401.971,499.893,397.542z"/>
<polygon style="fill:#965353;" points="276.413,200.642 165.733,136.43 93.487,260.955 204.18,325.171 "/>
<path style="fill:#FFCE54;" d="M212.627,246.853c-8.865,15.284-28.442,20.482-43.727,11.617
	c-15.281-8.864-20.483-28.445-11.614-43.726c8.865-15.281,28.441-20.482,43.723-11.618
	C216.29,211.995,221.495,231.572,212.627,246.853z"/>
<g style="opacity:0.5;">
	<path style="fill:#FFFFFF;" d="M164.198,218.759c8.186-14.098,25.435-19.467,40.063-13.273c-1.062-0.816-2.07-1.672-3.253-2.359
		c-15.281-8.865-34.858-3.663-43.723,11.618c-8.869,15.281-3.667,34.862,11.614,43.726c1.183,0.684,2.429,1.137,3.663,1.656
		C159.926,250.5,156.02,232.856,164.198,218.759z"/>
</g>
<g style="opacity:0.2;">
	<path d="M205.706,242.838c-8.177,14.098-25.435,19.471-40.06,13.278c1.062,0.812,2.07,1.667,3.253,2.354
		c15.285,8.865,34.861,3.667,43.727-11.617c8.868-15.281,3.663-34.858-11.618-43.727c-1.184-0.687-2.425-1.136-3.663-1.656
		C209.983,211.097,213.888,228.741,205.706,242.838z"/>
</g>
<path style="fill:#ED5565;" d="M195.33,236.816c-3.32,5.726-10.669,7.682-16.394,4.358c-5.729-3.323-7.678-10.677-4.358-16.394
	c3.319-5.725,10.665-7.681,16.398-4.358C196.705,223.746,198.654,231.1,195.33,236.816z"/>
<g style="opacity:0.2;">
	<path style="fill:#FFFFFF;" d="M181.494,228.791c2.617-4.502,7.721-6.627,12.571-5.725c-0.863-1.02-1.875-1.937-3.089-2.644
		c-5.733-3.323-13.079-1.367-16.398,4.358c-3.319,5.717-1.371,13.071,4.358,16.394c1.214,0.707,2.515,1.129,3.823,1.371
		C179.573,238.785,178.882,233.298,181.494,228.791z"/>
</g>
<g style="opacity:0.2;">
	<path d="M188.996,233.142c-2.616,4.507-7.725,6.627-12.571,5.729c0.863,1.015,1.875,1.937,3.093,2.64
		c5.725,3.327,13.074,1.367,16.394-4.354c3.319-5.721,1.375-13.074-4.358-16.394c-1.214-0.711-2.511-1.129-3.823-1.375
		C190.918,223.152,191.609,228.635,188.996,233.142z"/>
</g>
<g>
	
		<rect x="173.187" y="119.036" transform="matrix(-0.865 -0.5018 0.5018 -0.865 393.4927 359.9345)" style="fill:#656D78;" width="143.962" height="15.989"/>
	<polygon style="fill:#656D78;" points="182.998,377.618 58.473,305.372 66.49,291.547 191.015,363.793 	"/>
</g>
<g>
	<polygon style="fill:#965353;" points="199.064,349.922 74.543,277.676 66.506,291.532 191.027,363.77 	"/>
	<polygon style="fill:#965353;" points="303.399,170.077 178.878,97.834 170.845,111.683 295.354,183.925 	"/>
</g>
<g>
	<polygon style="fill:#7F4545;" points="281.538,175.872 184.692,119.688 172.653,140.44 269.494,196.632 	"/>
	
		<rect x="86.824" y="291.448" transform="matrix(-0.865 -0.5018 0.5018 -0.865 114.0701 637.5873)" style="fill:#7F4545;" width="111.972" height="24"/>
</g>
<g>
	<polygon style="fill:#ED5565;" points="301.446,316.876 266.854,296.812 282.904,269.139 317.504,289.212 	"/>
	<path style="fill:#ED5565;" d="M505.704,419.404c4.429-7.639,1.82-17.433-5.811-21.861l-13.84-8.029l-16.051,27.673l13.832,8.029
		C491.481,429.643,501.267,427.05,505.704,419.404z"/>
</g>
<g style="opacity:0.2;">
	<path d="M499.893,397.542l-13.84-8.029c7.646,4.437,10.255,14.223,5.818,21.869c-4.437,7.639-14.238,10.231-21.869,5.804
		l13.832,8.029c7.646,4.428,17.433,1.835,21.869-5.812C510.132,411.765,507.524,401.971,499.893,397.542z"/>
</g>
<g style="opacity:0.2;">
	<polygon points="197.26,321.157 100.407,264.969 96.396,271.881 193.245,328.077 	"/>
</g>
<g style="opacity:0.2;">
	
		<rect x="167.109" y="161.081" transform="matrix(-0.865 -0.5018 0.5018 -0.865 333.2261 419.8106)" width="111.962" height="7.991"/>
</g>
<g style="opacity:0.2;">
	<polygon points="281.538,175.88 184.688,119.696 180.674,126.612 277.515,182.8 	"/>
</g>
<g style="opacity:0.2;">
	<polygon style="fill:#FFFFFF;" points="88.363,285.729 74.527,277.7 58.508,305.317 72.34,313.346 	"/>
</g>
<g style="opacity:0.2;">
	<polygon points="199.048,349.946 185.216,341.916 169.193,369.535 183.029,377.563 	"/>
</g>
<g style="opacity:0.2;">
	
		<rect x="177.805" y="85.877" transform="matrix(-0.8649 -0.5019 0.5019 -0.8649 295.392 283.1855)" style="fill:#FFFFFF;" width="15.997" height="31.932"/>
</g>
<g style="opacity:0.2;">
	
		<rect x="128.528" y="130.714" transform="matrix(-0.8649 -0.5019 0.5019 -0.8649 152.8748 446.5393)" style="fill:#FFFFFF;" width="15.997" height="143.967"/>
</g>
<g style="opacity:0.2;">
	<polygon points="276.413,200.642 262.585,192.618 190.34,317.142 204.18,325.171 	"/>
</g>
<g style="opacity:0.2;">
	<polygon points="255.236,253.086 248.332,249.071 232.273,276.739 239.185,280.761 	"/>
</g>
<g style="opacity:0.2;">
	<polygon points="311.42,156.26 297.572,148.231 281.545,175.852 295.393,183.878 	"/>
</g>
<g style="opacity:0.2;">
	
		<rect x="177.598" y="130.09" transform="matrix(-0.8649 -0.502 0.502 -0.8649 278.8011 343.2277)" style="fill:#FFFFFF;" width="15.994" height="8"/>
</g>
<g style="opacity:0.2;">
	<polygon points="277.515,182.796 263.694,174.77 259.672,181.687 273.508,189.716 	"/>
</g>
<g style="opacity:0.2;">
	<polygon points="189.23,334.996 92.382,278.801 88.367,285.721 185.216,341.909 	"/>
</g>
<g style="opacity:0.2;">
	<polygon style="fill:#FFFFFF;" points="110.228,279.911 96.396,271.881 92.382,278.801 106.218,286.83 	"/>
</g>
<g style="opacity:0.2;">
	<polygon points="193.245,328.077 179.409,320.047 175.394,326.959 189.23,334.996 	"/>
</g>
<g>
	<path style="fill:#3A3847;" d="M267.924,399.385c-2.211,0-3.996-1.788-3.996-3.998v-3.999H31.991v3.999
		c0,2.21-1.788,3.998-3.999,3.998s-3.999-1.788-3.999-3.998v-7.998c0-2.211,1.789-3.999,3.999-3.999h239.932
		c2.21,0,3.998,1.788,3.998,3.999v7.998C271.922,397.597,270.134,399.385,267.924,399.385z"/>
	<path style="fill:#3A3847;" d="M291.917,431.377H3.999c-2.21,0-3.999-1.789-3.999-3.999v-23.993c0-2.211,1.789-4,3.999-4h287.918
		c2.21,0,3.999,1.789,3.999,4v23.993C295.916,429.588,294.127,431.377,291.917,431.377z M7.998,423.379h279.92v-15.996H7.998
		V423.379z"/>
	<path style="fill:#3A3847;" d="M183.361,382.117c-0.691,0-1.379-0.18-1.988-0.53L56.485,309.98
		c-1.917-1.101-2.582-3.546-1.48-5.459l15.91-27.759c0.527-0.922,1.398-1.593,2.421-1.866c1.016-0.289,2.113-0.141,3.034,0.391
		l124.893,71.605c1.917,1.094,2.581,3.538,1.48,5.452l-15.914,27.758c-0.527,0.922-1.398,1.594-2.421,1.874
		C184.064,382.07,183.712,382.117,183.361,382.117z M63.932,305.028l117.949,67.631l11.935-20.822L75.862,284.213L63.932,305.028z"
		/>
	<path style="fill:#3A3847;" d="M294.745,187.838c-0.695,0-1.375-0.18-1.991-0.531l-124.892-71.606
		c-0.922-0.527-1.593-1.398-1.871-2.421c-0.277-1.023-0.137-2.116,0.391-3.038L182.296,82.5c1.098-1.914,3.55-2.578,5.456-1.477
		l124.888,71.598c1.914,1.097,2.577,3.542,1.477,5.456l-15.902,27.75c-0.523,0.922-1.397,1.594-2.421,1.871
		C295.448,187.791,295.096,187.838,294.745,187.838z M175.309,110.753l117.952,67.626l11.927-20.811L187.243,89.95L175.309,110.753z
		"/>
	<path style="fill:#3A3847;" d="M175.769,138.062c-0.676,0-1.359-0.172-1.984-0.531c-1.917-1.097-2.581-3.542-1.479-5.456
		l7.955-13.871c1.097-1.921,3.546-2.585,5.456-1.48c1.917,1.098,2.581,3.542,1.48,5.456l-7.955,13.871
		C178.503,137.339,177.156,138.062,175.769,138.062z"/>
	<path style="fill:#3A3847;" d="M272.914,193.758c-0.68,0-1.359-0.172-1.991-0.531c-1.914-1.097-2.578-3.542-1.477-5.455
		l7.951-13.872c1.093-1.925,3.538-2.57,5.459-1.48c1.914,1.098,2.578,3.542,1.477,5.456l-7.951,13.872
		C275.648,193.035,274.297,193.758,272.914,193.758z"/>
	<path style="fill:#3A3847;" d="M88.266,290.696c-0.676,0-1.359-0.172-1.984-0.531c-1.917-1.101-2.582-3.545-1.48-5.459
		l7.951-13.863c1.097-1.914,3.546-2.578,5.456-1.477c1.917,1.094,2.582,3.538,1.48,5.452l-7.951,13.863
		C90.999,289.97,89.652,290.696,88.266,290.696z"/>
	<path style="fill:#3A3847;" d="M185.399,346.392c-0.676,0-1.359-0.172-1.983-0.531c-1.918-1.101-2.582-3.546-1.48-5.459
		l7.951-13.864c1.097-1.921,3.538-2.577,5.456-1.476c1.917,1.094,2.582,3.538,1.48,5.452l-7.951,13.863
		C188.133,345.665,186.786,346.392,185.399,346.392z"/>
	<path style="fill:#3A3847;" d="M499.815,401.424c-0.695,0-1.391-0.18-2.031-0.555L259.872,260.646
		c-1.902-1.121-2.535-3.573-1.414-5.475c1.117-1.901,3.577-2.534,5.471-1.414l237.917,140.224c1.906,1.117,2.538,3.569,1.414,5.475
		C502.517,400.721,501.181,401.424,499.815,401.424z"/>
	<path style="fill:#3A3847;" d="M483.905,429.19c-0.695,0-1.391-0.18-2.03-0.555L243.962,288.408
		c-1.902-1.124-2.534-3.577-1.414-5.476c1.121-1.913,3.573-2.538,5.475-1.413l237.913,140.228c1.905,1.117,2.538,3.57,1.413,5.476
		C486.607,428.487,485.272,429.19,483.905,429.19z"/>
	<path style="fill:#3A3847;" d="M204.176,329.17c-0.68,0-1.371-0.172-2.003-0.539L91.479,264.414
		c-0.918-0.535-1.585-1.41-1.859-2.434c-0.27-1.026-0.125-2.116,0.406-3.034l72.247-124.524c1.105-1.91,3.55-2.566,5.467-1.453
		l110.68,64.213c1.914,1.109,2.562,3.558,1.453,5.468l-72.234,124.528C206.897,328.452,205.554,329.17,204.176,329.17z
		 M98.954,259.501l103.773,60.202l68.22-117.608l-103.761-60.199L98.954,259.501z"/>
	<path style="fill:#3A3847;" d="M491.825,431.299c-3.366,0-6.779-0.852-9.903-2.641c-1.922-1.093-2.586-3.537-1.484-5.459
		c1.094-1.93,3.554-2.577,5.452-1.484c5.756,3.289,13.098,1.297,16.378-4.443c1.593-2.789,2.015-6.022,1.18-9.115
		c-0.844-3.085-2.835-5.67-5.624-7.264c-1.913-1.102-2.577-3.546-1.476-5.459c1.093-1.922,3.538-2.578,5.459-1.477
		c4.632,2.655,7.959,6.959,9.356,12.106c1.398,5.154,0.703,10.552-1.96,15.19C505.516,427.691,498.768,431.299,491.825,431.299z"/>
	<path style="fill:#3A3847;" d="M184.544,267.296c-6.249,0-12.434-1.656-17.886-4.784c-8.333-4.771-14.312-12.507-16.831-21.791
		c-2.515-9.278-1.27-18.983,3.515-27.324c6.396-11.161,18.378-18.097,31.261-18.097c6.241,0,12.415,1.647,17.859,4.764
		c17.222,9.885,23.197,31.921,13.325,49.132C209.393,260.357,197.42,267.296,184.544,267.296z M184.602,203.298
		c-10.024,0-19.346,5.393-24.325,14.074c-3.718,6.491-4.687,14.04-2.729,21.256c1.956,7.217,6.607,13.234,13.09,16.944
		c4.245,2.437,9.053,3.721,13.907,3.721c10.017,0,19.331-5.393,24.302-14.078c7.681-13.387,3.03-30.527-10.365-38.212
		C194.253,204.579,189.449,203.298,184.602,203.298z"/>
	<path style="fill:#3A3847;" d="M184.56,243.295c-2.089,0-4.151-0.554-5.967-1.597c-2.769-1.582-4.765-4.155-5.604-7.248
		c-0.843-3.097-0.429-6.334,1.167-9.119c3.175-5.534,10.821-7.623,16.379-4.44c5.736,3.288,7.728,10.638,4.436,16.374
		C192.835,240.987,188.848,243.295,184.56,243.295z M184.572,227.296c-1.433,0-2.765,0.77-3.48,2.015
		c-0.531,0.926-0.667,2.004-0.386,3.039c0.277,1.027,0.941,1.882,1.863,2.406c1.921,1.113,4.409,0.371,5.467-1.469
		c1.097-1.909,0.433-4.362-1.48-5.459C185.934,227.472,185.27,227.296,184.572,227.296z"/>
	<path style="fill:#3A3847;" d="M177.436,360.279c-0.675,0-1.358-0.172-1.983-0.53l-97.138-55.688
		c-1.917-1.102-2.582-3.546-1.48-5.46c1.094-1.921,3.538-2.577,5.456-1.476l97.138,55.688c1.917,1.094,2.581,3.538,1.48,5.452
		C180.17,359.553,178.823,360.279,177.436,360.279z"/>
	<path style="fill:#3A3847;" d="M288.825,166c-0.68,0-1.359-0.172-1.992-0.531L189.7,109.781c-1.917-1.097-2.581-3.542-1.48-5.455
		c1.098-1.922,3.55-2.582,5.456-1.48l97.141,55.688c1.914,1.097,2.577,3.542,1.477,5.455C291.558,165.277,290.206,166,288.825,166z"
		/>
	<path style="fill:#3A3847;" d="M193.632,139.085c-0.676,0-1.355-0.168-1.984-0.527c-1.917-1.097-2.582-3.542-1.484-5.459
		l3.972-6.936c1.105-1.922,3.53-2.582,5.459-1.484c1.918,1.098,2.582,3.542,1.484,5.459l-3.972,6.936
		C196.365,138.362,195.018,139.085,193.632,139.085z"/>
	<path style="fill:#3A3847;" d="M263.015,178.863c-0.676,0-1.355-0.168-1.984-0.527c-1.917-1.097-2.581-3.542-1.483-5.459
		l3.972-6.936c1.093-1.922,3.554-2.578,5.451-1.484c1.922,1.098,2.585,3.542,1.484,5.46l-3.968,6.936
		C265.745,178.141,264.401,178.863,263.015,178.863z"/>
	<path style="fill:#3A3847;" d="M171.528,338.441c-0.676,0-1.355-0.172-1.984-0.53c-1.917-1.094-2.582-3.539-1.484-5.46l3.968-6.928
		c1.101-1.913,3.53-2.585,5.459-1.484c1.918,1.102,2.582,3.546,1.484,5.46l-3.968,6.928
		C174.262,337.715,172.914,338.441,171.528,338.441z"/>
	<path style="fill:#3A3847;" d="M102.141,298.655c-0.676,0-1.359-0.172-1.984-0.531c-1.917-1.101-2.582-3.545-1.48-5.459
		l3.972-6.928c1.093-1.914,3.542-2.586,5.456-1.477c1.917,1.094,2.582,3.538,1.48,5.452l-3.972,6.928
		C104.874,297.928,103.527,298.655,102.141,298.655z"/>
	<path style="fill:#3A3847;" d="M474.009,414.295c-0.68,0-1.359-0.172-1.984-0.531c-1.921-1.093-2.585-3.537-1.483-5.459
		l7.951-13.887c1.093-1.922,3.553-2.577,5.451-1.484c1.922,1.102,2.585,3.546,1.484,5.46l-7.951,13.887
		C476.743,413.57,475.391,414.295,474.009,414.295z"/>
	<path style="fill:#3A3847;" d="M277.726,297.936c-0.68,0-1.359-0.172-1.992-0.531c-1.913-1.101-2.577-3.545-1.476-5.459
		l7.951-13.871c1.093-1.922,3.537-2.569,5.459-1.477c1.914,1.094,2.577,3.538,1.477,5.452l-7.951,13.871
		C280.459,297.21,279.108,297.936,277.726,297.936z"/>
	<path style="fill:#3A3847;" d="M312.412,317.822c-0.679,0-1.358-0.172-1.991-0.531c-1.914-1.101-2.578-3.538-1.477-5.459
		l7.951-13.88c1.086-1.921,3.538-2.562,5.459-1.483c1.914,1.101,2.578,3.546,1.477,5.459l-7.951,13.88
		C315.145,317.095,313.794,317.822,312.412,317.822z"/>
</g>
<g>
</g>
<g>
</g>
<g>
</g>
<g>
</g>
<g>
</g>
<g>
</g>
<g>
</g>
<g>
</g>
<g>
</g>
<g>
</g>
<g>
</g>
<g>
</g>
<g>
</g>
<g>
</g>
<g>
</g>
</svg>
