<?xml version="1.0" encoding="UTF-8" standalone="no"?>
<!-- Generator: Adobe Illustrator 19.0.0, SVG Export Plug-In . SVG Version: 6.00 Build 0)  -->

<svg
   xmlns:dc="http://purl.org/dc/elements/1.1/"
   xmlns:cc="http://creativecommons.org/ns#"
   xmlns:rdf="http://www.w3.org/1999/02/22-rdf-syntax-ns#"
   xmlns:svg="http://www.w3.org/2000/svg"
   xmlns="http://www.w3.org/2000/svg"
   xmlns:sodipodi="http://sodipodi.sourceforge.net/DTD/sodipodi-0.dtd"
   xmlns:inkscape="http://www.inkscape.org/namespaces/inkscape"
   version="1.1"
   id="Capa_1"
   x="0px"
   y="0px"
   viewBox="0 0 3000 511.868"
   xml:space="preserve"
   sodipodi:docname="header.svg"
   width="3000"
   height="511.86801"
   inkscape:version="0.92.4 (5da689c313, 2019-01-14)"><metadata
   id="metadata221"><rdf:RDF><cc:Work
       rdf:about=""><dc:format>image/svg+xml</dc:format><dc:type
         rdf:resource="http://purl.org/dc/dcmitype/StillImage" /><dc:title></dc:title></cc:Work></rdf:RDF></metadata><defs
   id="defs219" /><sodipodi:namedview
   pagecolor="#ffffff"
   bordercolor="#666666"
   borderopacity="1"
   objecttolerance="10"
   gridtolerance="10"
   guidetolerance="10"
   inkscape:pageopacity="0"
   inkscape:pageshadow="2"
   inkscape:window-width="1920"
   inkscape:window-height="1001"
   id="namedview217"
   showgrid="false"
   inkscape:zoom="0.46105636"
   inkscape:cx="1490.0734"
   inkscape:cy="271.11653"
   inkscape:window-x="-9"
   inkscape:window-y="-9"
   inkscape:window-maximized="1"
   inkscape:current-layer="Capa_1" />
<rect
   x="255.73189"
   y="365.69467"
   style="fill:#656d78"
   width="239.92999"
   height="15.996"
   id="rect2" />
<rect
   x="231.73689"
   y="381.69467"
   style="fill:#965353"
   width="287.92001"
   height="23.993"
   id="rect4" />
<g
   style="opacity:0.2"
   id="g8"
   transform="translate(227.73789,-21.689327)">
	<rect
   x="27.993999"
   y="395.384"
   width="239.92999"
   height="7.9980001"
   id="rect6" />
</g>
<g
   style="opacity:0.2"
   id="g12"
   transform="translate(227.73789,-21.689327)">
	<rect
   x="27.993999"
   y="387.384"
   style="fill:#ffffff"
   width="15.996"
   height="7.9980001"
   id="rect10" />
</g>
<g
   style="opacity:0.2"
   id="g16"
   transform="translate(227.73789,-21.689327)">
	<rect
   x="3.9990001"
   y="403.384"
   style="fill:#ffffff"
   width="15.996"
   height="23.993"
   id="rect14" />
</g>
<g
   style="opacity:0.2"
   id="g20"
   transform="translate(227.73789,-21.689327)">
	<rect
   x="275.92401"
   y="403.384"
   style="fill:#ffffff"
   width="15.996"
   height="23.993"
   id="rect18" />
</g>
<g
   style="opacity:0.2"
   id="g24"
   transform="translate(227.73789,-21.689327)">
	<rect
   x="251.93401"
   y="387.384"
   width="15.992"
   height="7.9980001"
   id="rect22" />
</g>
<path
   style="fill:#7f4545"
   d="m 727.63089,375.85267 -251.561,-148.471 -16.059,27.667 251.561,148.477 c 7.646,4.428 17.433,1.835 21.869,-5.812 4.429,-7.638 1.821,-17.432 -5.81,-21.861 z"
   id="path26"
   inkscape:connector-curvature="0" />
<polygon
   style="fill:#965353"
   points="165.733,136.43 93.487,260.955 204.18,325.171 276.413,200.642 "
   id="polygon28"
   transform="translate(227.73789,-21.689327)" />
<path
   style="fill:#ffce54"
   d="m 440.36489,225.16367 c -8.865,15.284 -28.442,20.482 -43.727,11.617 -15.281,-8.864 -20.483,-28.445 -11.614,-43.726 8.865,-15.281 28.441,-20.482 43.723,-11.618 15.281,8.869 20.486,28.446 11.618,43.727 z"
   id="path30"
   inkscape:connector-curvature="0" />
<g
   style="opacity:0.5"
   id="g34"
   transform="translate(227.73789,-21.689327)">
	<path
   style="fill:#ffffff"
   d="m 164.198,218.759 c 8.186,-14.098 25.435,-19.467 40.063,-13.273 -1.062,-0.816 -2.07,-1.672 -3.253,-2.359 -15.281,-8.865 -34.858,-3.663 -43.723,11.618 -8.869,15.281 -3.667,34.862 11.614,43.726 1.183,0.684 2.429,1.137 3.663,1.656 -12.636,-9.627 -16.542,-27.271 -8.364,-41.368 z"
   id="path32"
   inkscape:connector-curvature="0" />
</g>
<g
   style="opacity:0.2"
   id="g38"
   transform="translate(227.73789,-21.689327)">
	<path
   d="m 205.706,242.838 c -8.177,14.098 -25.435,19.471 -40.06,13.278 1.062,0.812 2.07,1.667 3.253,2.354 15.285,8.865 34.861,3.667 43.727,-11.617 8.868,-15.281 3.663,-34.858 -11.618,-43.727 -1.184,-0.687 -2.425,-1.136 -3.663,-1.656 12.638,9.627 16.543,27.271 8.361,41.368 z"
   id="path36"
   inkscape:connector-curvature="0" />
</g>
<path
   style="fill:#ed5565"
   d="m 423.06789,215.12667 c -3.32,5.726 -10.669,7.682 -16.394,4.358 -5.729,-3.323 -7.678,-10.677 -4.358,-16.394 3.319,-5.725 10.665,-7.681 16.398,-4.358 5.729,3.324 7.678,10.678 4.354,16.394 z"
   id="path40"
   inkscape:connector-curvature="0" />
<g
   style="opacity:0.2"
   id="g44"
   transform="translate(227.73789,-21.689327)">
	<path
   style="fill:#ffffff"
   d="m 181.494,228.791 c 2.617,-4.502 7.721,-6.627 12.571,-5.725 -0.863,-1.02 -1.875,-1.937 -3.089,-2.644 -5.733,-3.323 -13.079,-1.367 -16.398,4.358 -3.319,5.717 -1.371,13.071 4.358,16.394 1.214,0.707 2.515,1.129 3.823,1.371 -3.186,-3.76 -3.877,-9.247 -1.265,-13.754 z"
   id="path42"
   inkscape:connector-curvature="0" />
</g>
<g
   style="opacity:0.2"
   id="g48"
   transform="translate(227.73789,-21.689327)">
	<path
   d="m 188.996,233.142 c -2.616,4.507 -7.725,6.627 -12.571,5.729 0.863,1.015 1.875,1.937 3.093,2.64 5.725,3.327 13.074,1.367 16.394,-4.354 3.319,-5.721 1.375,-13.074 -4.358,-16.394 -1.214,-0.711 -2.511,-1.129 -3.823,-1.375 3.187,3.764 3.878,9.247 1.265,13.754 z"
   id="path46"
   inkscape:connector-curvature="0" />
</g>
<g
   id="g54"
   transform="translate(227.73789,-21.689327)">
	
		<rect
   x="173.187"
   y="119.036"
   transform="matrix(-0.865,-0.5018,0.5018,-0.865,393.4927,359.9345)"
   style="fill:#656d78"
   width="143.96201"
   height="15.989"
   id="rect50" />
	<polygon
   style="fill:#656d78"
   points="58.473,305.372 66.49,291.547 191.015,363.793 182.998,377.618 "
   id="polygon52" />
</g>
<g
   id="g60"
   transform="translate(227.73789,-21.689327)">
	<polygon
   style="fill:#965353"
   points="74.543,277.676 66.506,291.532 191.027,363.77 199.064,349.922 "
   id="polygon56" />
	<polygon
   style="fill:#965353"
   points="178.878,97.834 170.845,111.683 295.354,183.925 303.399,170.077 "
   id="polygon58" />
</g>
<g
   id="g66"
   transform="translate(227.73789,-21.689327)">
	<polygon
   style="fill:#7f4545"
   points="184.692,119.688 172.653,140.44 269.494,196.632 281.538,175.872 "
   id="polygon62" />
	
		<rect
   x="86.823997"
   y="291.448"
   transform="matrix(-0.865,-0.5018,0.5018,-0.865,114.0701,637.5873)"
   style="fill:#7f4545"
   width="111.972"
   height="24"
   id="rect64" />
</g>
<g
   id="g72"
   transform="translate(227.73789,-21.689327)">
	<polygon
   style="fill:#ed5565"
   points="266.854,296.812 282.904,269.139 317.504,289.212 301.446,316.876 "
   id="polygon68" />
	<path
   style="fill:#ed5565"
   d="m 505.704,419.404 c 4.429,-7.639 1.82,-17.433 -5.811,-21.861 l -13.84,-8.029 -16.051,27.673 13.832,8.029 c 7.647,4.427 17.433,1.834 21.87,-5.812 z"
   id="path70"
   inkscape:connector-curvature="0" />
</g>
<g
   style="opacity:0.2"
   id="g76"
   transform="translate(373.05635,-13.013598)">
	<path
   d="m 499.893,397.542 -13.84,-8.029 c 7.646,4.437 10.255,14.223 5.818,21.869 -4.437,7.639 -14.238,10.231 -21.869,5.804 l 13.832,8.029 c 7.646,4.428 17.433,1.835 21.869,-5.812 4.429,-7.638 1.821,-17.432 -5.81,-21.861 z"
   id="path74"
   inkscape:connector-curvature="0" />
</g>
<g
   style="opacity:0.2"
   id="g80"
   transform="translate(227.73789,-21.689327)">
	<polygon
   points="100.407,264.969 96.396,271.881 193.245,328.077 197.26,321.157 "
   id="polygon78" />
</g>
<g
   style="opacity:0.2"
   id="g84"
   transform="translate(227.73789,-21.689327)">
	
		<rect
   x="167.10899"
   y="161.08099"
   transform="matrix(-0.865,-0.5018,0.5018,-0.865,333.2261,419.8106)"
   width="111.962"
   height="7.9910002"
   id="rect82" />
</g>
<g
   style="opacity:0.2"
   id="g88"
   transform="translate(227.73789,-21.689327)">
	<polygon
   points="184.688,119.696 180.674,126.612 277.515,182.8 281.538,175.88 "
   id="polygon86" />
</g>
<g
   style="opacity:0.2"
   id="g92"
   transform="translate(227.73789,-21.689327)">
	<polygon
   style="fill:#ffffff"
   points="74.527,277.7 58.508,305.317 72.34,313.346 88.363,285.729 "
   id="polygon90" />
</g>
<g
   style="opacity:0.2"
   id="g96"
   transform="translate(227.73789,-21.689327)">
	<polygon
   points="185.216,341.916 169.193,369.535 183.029,377.563 199.048,349.946 "
   id="polygon94" />
</g>
<g
   style="opacity:0.2"
   id="g100"
   transform="translate(227.73789,-21.689327)">
	
		<rect
   x="177.80499"
   y="85.876999"
   transform="matrix(-0.8649,-0.5019,0.5019,-0.8649,295.392,283.1855)"
   style="fill:#ffffff"
   width="15.997"
   height="31.931999"
   id="rect98" />
</g>
<g
   style="opacity:0.2"
   id="g104"
   transform="translate(227.73789,-21.689327)">
	
		<rect
   x="128.528"
   y="130.714"
   transform="matrix(-0.8649,-0.5019,0.5019,-0.8649,152.8748,446.5393)"
   style="fill:#ffffff"
   width="15.997"
   height="143.967"
   id="rect102" />
</g>
<g
   style="opacity:0.2"
   id="g108"
   transform="translate(227.73789,-21.689327)">
	<polygon
   points="262.585,192.618 190.34,317.142 204.18,325.171 276.413,200.642 "
   id="polygon106" />
</g>
<g
   style="opacity:0.2"
   id="g112"
   transform="translate(227.73789,-21.689327)">
	<polygon
   points="248.332,249.071 232.273,276.739 239.185,280.761 255.236,253.086 "
   id="polygon110" />
</g>
<g
   style="opacity:0.2"
   id="g116"
   transform="translate(227.73789,-21.689327)">
	<polygon
   points="297.572,148.231 281.545,175.852 295.393,183.878 311.42,156.26 "
   id="polygon114" />
</g>
<g
   style="opacity:0.2"
   id="g120"
   transform="translate(227.73789,-21.689327)">
	
		<rect
   x="177.59801"
   y="130.09"
   transform="matrix(-0.8649,-0.502,0.502,-0.8649,278.8011,343.2277)"
   style="fill:#ffffff"
   width="15.994"
   height="8"
   id="rect118" />
</g>
<g
   style="opacity:0.2"
   id="g124"
   transform="translate(227.73789,-21.689327)">
	<polygon
   points="263.694,174.77 259.672,181.687 273.508,189.716 277.515,182.796 "
   id="polygon122" />
</g>
<g
   style="opacity:0.2"
   id="g128"
   transform="translate(227.73789,-21.689327)">
	<polygon
   points="92.382,278.801 88.367,285.721 185.216,341.909 189.23,334.996 "
   id="polygon126" />
</g>
<g
   style="opacity:0.2"
   id="g132"
   transform="translate(227.73789,-21.689327)">
	<polygon
   style="fill:#ffffff"
   points="96.396,271.881 92.382,278.801 106.218,286.83 110.228,279.911 "
   id="polygon130" />
</g>
<g
   style="opacity:0.2"
   id="g136"
   transform="translate(227.73789,-21.689327)">
	<polygon
   points="179.409,320.047 175.394,326.959 189.23,334.996 193.245,328.077 "
   id="polygon134" />
</g>
<g
   id="g184"
   transform="translate(227.73789,-21.689327)">
	<path
   style="fill:#3a3847"
   d="m 267.924,399.385 c -2.211,0 -3.996,-1.788 -3.996,-3.998 v -3.999 H 31.991 v 3.999 c 0,2.21 -1.788,3.998 -3.999,3.998 -2.211,0 -3.999,-1.788 -3.999,-3.998 v -7.998 c 0,-2.211 1.789,-3.999 3.999,-3.999 h 239.932 c 2.21,0 3.998,1.788 3.998,3.999 v 7.998 c 0,2.21 -1.788,3.998 -3.998,3.998 z"
   id="path138"
   inkscape:connector-curvature="0" />
	<path
   style="fill:#3a3847"
   d="M 291.917,431.377 H 3.999 C 1.789,431.377 0,429.588 0,427.378 v -23.993 c 0,-2.211 1.789,-4 3.999,-4 h 287.918 c 2.21,0 3.999,1.789 3.999,4 v 23.993 c 0,2.21 -1.789,3.999 -3.999,3.999 z M 7.998,423.379 h 279.92 V 407.383 H 7.998 Z"
   id="path140"
   inkscape:connector-curvature="0" />
	<path
   style="fill:#3a3847"
   d="m 183.361,382.117 c -0.691,0 -1.379,-0.18 -1.988,-0.53 L 56.485,309.98 c -1.917,-1.101 -2.582,-3.546 -1.48,-5.459 l 15.91,-27.759 c 0.527,-0.922 1.398,-1.593 2.421,-1.866 1.016,-0.289 2.113,-0.141 3.034,0.391 l 124.893,71.605 c 1.917,1.094 2.581,3.538 1.48,5.452 l -15.914,27.758 c -0.527,0.922 -1.398,1.594 -2.421,1.874 -0.344,0.094 -0.696,0.141 -1.047,0.141 z M 63.932,305.028 181.881,372.659 193.816,351.837 75.862,284.213 Z"
   id="path142"
   inkscape:connector-curvature="0" />
	<path
   style="fill:#3a3847"
   d="m 294.745,187.838 c -0.695,0 -1.375,-0.18 -1.991,-0.531 L 167.862,115.701 c -0.922,-0.527 -1.593,-1.398 -1.871,-2.421 -0.277,-1.023 -0.137,-2.116 0.391,-3.038 L 182.296,82.5 c 1.098,-1.914 3.55,-2.578 5.456,-1.477 l 124.888,71.598 c 1.914,1.097 2.577,3.542 1.477,5.456 l -15.902,27.75 c -0.523,0.922 -1.397,1.594 -2.421,1.871 -0.346,0.093 -0.698,0.14 -1.049,0.14 z M 175.309,110.753 293.261,178.379 305.188,157.568 187.243,89.95 Z"
   id="path144"
   inkscape:connector-curvature="0" />
	<path
   style="fill:#3a3847"
   d="m 175.769,138.062 c -0.676,0 -1.359,-0.172 -1.984,-0.531 -1.917,-1.097 -2.581,-3.542 -1.479,-5.456 l 7.955,-13.871 c 1.097,-1.921 3.546,-2.585 5.456,-1.48 1.917,1.098 2.581,3.542 1.48,5.456 l -7.955,13.871 c -0.739,1.288 -2.086,2.011 -3.473,2.011 z"
   id="path146"
   inkscape:connector-curvature="0" />
	<path
   style="fill:#3a3847"
   d="m 272.914,193.758 c -0.68,0 -1.359,-0.172 -1.991,-0.531 -1.914,-1.097 -2.578,-3.542 -1.477,-5.455 l 7.951,-13.872 c 1.093,-1.925 3.538,-2.57 5.459,-1.48 1.914,1.098 2.578,3.542 1.477,5.456 l -7.951,13.872 c -0.734,1.287 -2.085,2.01 -3.468,2.01 z"
   id="path148"
   inkscape:connector-curvature="0" />
	<path
   style="fill:#3a3847"
   d="m 88.266,290.696 c -0.676,0 -1.359,-0.172 -1.984,-0.531 -1.917,-1.101 -2.582,-3.545 -1.48,-5.459 l 7.951,-13.863 c 1.097,-1.914 3.546,-2.578 5.456,-1.477 1.917,1.094 2.582,3.538 1.48,5.452 l -7.951,13.863 c -0.739,1.289 -2.086,2.015 -3.472,2.015 z"
   id="path150"
   inkscape:connector-curvature="0" />
	<path
   style="fill:#3a3847"
   d="m 185.399,346.392 c -0.676,0 -1.359,-0.172 -1.983,-0.531 -1.918,-1.101 -2.582,-3.546 -1.48,-5.459 l 7.951,-13.864 c 1.097,-1.921 3.538,-2.577 5.456,-1.476 1.917,1.094 2.582,3.538 1.48,5.452 l -7.951,13.863 c -0.739,1.288 -2.086,2.015 -3.473,2.015 z"
   id="path152"
   inkscape:connector-curvature="0" />
	<path
   style="fill:#3a3847"
   d="m 499.815,401.424 c -0.695,0 -1.391,-0.18 -2.031,-0.555 L 259.872,260.646 c -1.902,-1.121 -2.535,-3.573 -1.414,-5.475 1.117,-1.901 3.577,-2.534 5.471,-1.414 l 237.917,140.224 c 1.906,1.117 2.538,3.569 1.414,5.475 -0.743,1.265 -2.079,1.968 -3.445,1.968 z"
   id="path154"
   inkscape:connector-curvature="0" />
	<path
   style="fill:#3a3847"
   d="m 483.905,429.19 c -0.695,0 -1.391,-0.18 -2.03,-0.555 L 243.962,288.408 c -1.902,-1.124 -2.534,-3.577 -1.414,-5.476 1.121,-1.913 3.573,-2.538 5.475,-1.413 l 237.913,140.228 c 1.905,1.117 2.538,3.57 1.413,5.476 -0.742,1.264 -2.077,1.967 -3.444,1.967 z"
   id="path156"
   inkscape:connector-curvature="0" />
	<path
   style="fill:#3a3847"
   d="m 204.176,329.17 c -0.68,0 -1.371,-0.172 -2.003,-0.539 L 91.479,264.414 c -0.918,-0.535 -1.585,-1.41 -1.859,-2.434 -0.27,-1.026 -0.125,-2.116 0.406,-3.034 l 72.247,-124.524 c 1.105,-1.91 3.55,-2.566 5.467,-1.453 l 110.68,64.213 c 1.914,1.109 2.562,3.558 1.453,5.468 l -72.234,124.528 c -0.742,1.274 -2.085,1.992 -3.463,1.992 z M 98.954,259.501 202.727,319.703 270.947,202.095 167.186,141.896 Z"
   id="path158"
   inkscape:connector-curvature="0" />
	<path
   style="fill:#3a3847"
   d="m 491.825,431.299 c -3.366,0 -6.779,-0.852 -9.903,-2.641 -1.922,-1.093 -2.586,-3.537 -1.484,-5.459 1.094,-1.93 3.554,-2.577 5.452,-1.484 5.756,3.289 13.098,1.297 16.378,-4.443 1.593,-2.789 2.015,-6.022 1.18,-9.115 -0.844,-3.085 -2.835,-5.67 -5.624,-7.264 -1.913,-1.102 -2.577,-3.546 -1.476,-5.459 1.093,-1.922 3.538,-2.578 5.459,-1.477 4.632,2.655 7.959,6.959 9.356,12.106 1.398,5.154 0.703,10.552 -1.96,15.19 -3.687,6.438 -10.435,10.046 -17.378,10.046 z"
   id="path160"
   inkscape:connector-curvature="0" />
	<path
   style="fill:#3a3847"
   d="m 184.544,267.296 c -6.249,0 -12.434,-1.656 -17.886,-4.784 -8.333,-4.771 -14.312,-12.507 -16.831,-21.791 -2.515,-9.278 -1.27,-18.983 3.515,-27.324 6.396,-11.161 18.378,-18.097 31.261,-18.097 6.241,0 12.415,1.647 17.859,4.764 17.222,9.885 23.197,31.921 13.325,49.132 -6.394,11.161 -18.367,18.1 -31.243,18.1 z m 0.058,-63.998 c -10.024,0 -19.346,5.393 -24.325,14.074 -3.718,6.491 -4.687,14.04 -2.729,21.256 1.956,7.217 6.607,13.234 13.09,16.944 4.245,2.437 9.053,3.721 13.907,3.721 10.017,0 19.331,-5.393 24.302,-14.078 7.681,-13.387 3.03,-30.527 -10.365,-38.212 -4.229,-2.424 -9.033,-3.705 -13.88,-3.705 z"
   id="path162"
   inkscape:connector-curvature="0" />
	<path
   style="fill:#3a3847"
   d="m 184.56,243.295 c -2.089,0 -4.151,-0.554 -5.967,-1.597 -2.769,-1.582 -4.765,-4.155 -5.604,-7.248 -0.843,-3.097 -0.429,-6.334 1.167,-9.119 3.175,-5.534 10.821,-7.623 16.379,-4.44 5.736,3.288 7.728,10.638 4.436,16.374 -2.136,3.722 -6.123,6.03 -10.411,6.03 z m 0.012,-15.999 c -1.433,0 -2.765,0.77 -3.48,2.015 -0.531,0.926 -0.667,2.004 -0.386,3.039 0.277,1.027 0.941,1.882 1.863,2.406 1.921,1.113 4.409,0.371 5.467,-1.469 1.097,-1.909 0.433,-4.362 -1.48,-5.459 -0.622,-0.356 -1.286,-0.532 -1.984,-0.532 z"
   id="path164"
   inkscape:connector-curvature="0" />
	<path
   style="fill:#3a3847"
   d="m 177.436,360.279 c -0.675,0 -1.358,-0.172 -1.983,-0.53 L 78.315,304.061 c -1.917,-1.102 -2.582,-3.546 -1.48,-5.46 1.094,-1.921 3.538,-2.577 5.456,-1.476 l 97.138,55.688 c 1.917,1.094 2.581,3.538 1.48,5.452 -0.739,1.288 -2.086,2.014 -3.473,2.014 z"
   id="path166"
   inkscape:connector-curvature="0" />
	<path
   style="fill:#3a3847"
   d="m 288.825,166 c -0.68,0 -1.359,-0.172 -1.992,-0.531 L 189.7,109.781 c -1.917,-1.097 -2.581,-3.542 -1.48,-5.455 1.098,-1.922 3.55,-2.582 5.456,-1.48 l 97.141,55.688 c 1.914,1.097 2.577,3.542 1.477,5.455 -0.736,1.288 -2.088,2.011 -3.469,2.011 z"
   id="path168"
   inkscape:connector-curvature="0" />
	<path
   style="fill:#3a3847"
   d="m 193.632,139.085 c -0.676,0 -1.355,-0.168 -1.984,-0.527 -1.917,-1.097 -2.582,-3.542 -1.484,-5.459 l 3.972,-6.936 c 1.105,-1.922 3.53,-2.582 5.459,-1.484 1.918,1.098 2.582,3.542 1.484,5.459 l -3.972,6.936 c -0.742,1.288 -2.089,2.011 -3.475,2.011 z"
   id="path170"
   inkscape:connector-curvature="0" />
	<path
   style="fill:#3a3847"
   d="m 263.015,178.863 c -0.676,0 -1.355,-0.168 -1.984,-0.527 -1.917,-1.097 -2.581,-3.542 -1.483,-5.459 l 3.972,-6.936 c 1.093,-1.922 3.554,-2.578 5.451,-1.484 1.922,1.098 2.585,3.542 1.484,5.46 l -3.968,6.936 c -0.742,1.288 -2.086,2.01 -3.472,2.01 z"
   id="path172"
   inkscape:connector-curvature="0" />
	<path
   style="fill:#3a3847"
   d="m 171.528,338.441 c -0.676,0 -1.355,-0.172 -1.984,-0.53 -1.917,-1.094 -2.582,-3.539 -1.484,-5.46 l 3.968,-6.928 c 1.101,-1.913 3.53,-2.585 5.459,-1.484 1.918,1.102 2.582,3.546 1.484,5.46 l -3.968,6.928 c -0.741,1.288 -2.089,2.014 -3.475,2.014 z"
   id="path174"
   inkscape:connector-curvature="0" />
	<path
   style="fill:#3a3847"
   d="m 102.141,298.655 c -0.676,0 -1.359,-0.172 -1.984,-0.531 -1.917,-1.101 -2.582,-3.545 -1.48,-5.459 l 3.972,-6.928 c 1.093,-1.914 3.542,-2.586 5.456,-1.477 1.917,1.094 2.582,3.538 1.48,5.452 l -3.972,6.928 c -0.739,1.288 -2.086,2.015 -3.472,2.015 z"
   id="path176"
   inkscape:connector-curvature="0" />
	<path
   style="fill:#3a3847"
   d="m 474.009,414.295 c -0.68,0 -1.359,-0.172 -1.984,-0.531 -1.921,-1.093 -2.585,-3.537 -1.483,-5.459 l 7.951,-13.887 c 1.093,-1.922 3.553,-2.577 5.451,-1.484 1.922,1.102 2.585,3.546 1.484,5.46 l -7.951,13.887 c -0.734,1.289 -2.086,2.014 -3.468,2.014 z"
   id="path178"
   inkscape:connector-curvature="0" />
	<path
   style="fill:#3a3847"
   d="m 277.726,297.936 c -0.68,0 -1.359,-0.172 -1.992,-0.531 -1.913,-1.101 -2.577,-3.545 -1.476,-5.459 l 7.951,-13.871 c 1.093,-1.922 3.537,-2.569 5.459,-1.477 1.914,1.094 2.577,3.538 1.477,5.452 l -7.951,13.871 c -0.735,1.289 -2.086,2.015 -3.468,2.015 z"
   id="path180"
   inkscape:connector-curvature="0" />
	<path
   style="fill:#3a3847"
   d="m 312.412,317.822 c -0.679,0 -1.358,-0.172 -1.991,-0.531 -1.914,-1.101 -2.578,-3.538 -1.477,-5.459 l 7.951,-13.88 c 1.086,-1.921 3.538,-2.562 5.459,-1.483 1.914,1.101 2.578,3.546 1.477,5.459 l -7.951,13.88 c -0.735,1.287 -2.086,2.014 -3.468,2.014 z"
   id="path182"
   inkscape:connector-curvature="0" />
</g>
<g
   id="g186"
   transform="translate(0,-4.4238279e-6)">
</g>
<g
   id="g188"
   transform="translate(0,-4.4238279e-6)">
</g>
<g
   id="g190"
   transform="translate(0,-4.4238279e-6)">
</g>
<g
   id="g192"
   transform="translate(0,-4.4238279e-6)">
</g>
<g
   id="g194"
   transform="translate(0,-4.4238279e-6)">
</g>
<g
   id="g196"
   transform="translate(0,-4.4238279e-6)">
</g>
<g
   id="g198"
   transform="translate(0,-4.4238279e-6)">
</g>
<g
   id="g200"
   transform="translate(0,-4.4238279e-6)">
</g>
<g
   id="g202"
   transform="translate(0,-4.4238279e-6)">
</g>
<g
   id="g204"
   transform="translate(0,-4.4238279e-6)">
</g>
<g
   id="g206"
   transform="translate(0,-4.4238279e-6)">
</g>
<g
   id="g208"
   transform="translate(0,-4.4238279e-6)">
</g>
<g
   id="g210"
   transform="translate(0,-4.4238279e-6)">
</g>
<g
   id="g212"
   transform="translate(0,-4.4238279e-6)">
</g>
<g
   id="g214"
   transform="translate(0,-4.4238279e-6)">
</g>
<flowRoot
   xml:space="preserve"
   id="flowRoot3926"
   style="fill:black;fill-opacity:1;stroke:none;font-family:sans-serif;font-style:normal;font-weight:normal;font-size:40px;line-height:1.25;letter-spacing:0px;word-spacing:0px"><flowRegion
     id="flowRegion3928"><rect
       id="rect3930"
       width="2051.8098"
       height="405.59033"
       x="583.44275"
       y="45.547577" /></flowRegion><flowPara
     id="flowPara3932"></flowPara></flowRoot><text
   xml:space="preserve"
   style="font-style:normal;font-weight:normal;font-size:284.34863281px;line-height:1.25;font-family:sans-serif;letter-spacing:0px;word-spacing:0px;fill:#000000;fill-opacity:1;stroke:none;stroke-width:0.67522746"
   x="1162.7986"
   y="269.71121"
   id="text3983"
   transform="scale(0.67522747,1.4809824)"><tspan
     sodipodi:role="line"
     x="3558.6577"
     y="inf"
     id="tspan3981"
     style="stroke-width:0.67522746"><tspan
       x="1162.7986"
       y="269.71121"
       style="font-style:normal;font-variant:normal;font-weight:normal;font-stretch:normal;font-family:'Javanese Text';-inkscape-font-specification:'Javanese Text';stroke-width:0.67522746"
       id="tspan3977">AUKTIONHOUSE </tspan><tspan
       x="3558.6577"
       y="269.71121"
       style="fill:#ffcc00;stroke-width:0.67522746"
       id="tspan3979">101</tspan></tspan></text>
<rect
   style="opacity:1;fill:#000000;fill-opacity:1;stroke:none;stroke-width:8.0012598;stroke-linecap:round;stroke-linejoin:round;stroke-miterlimit:23.39999962;stroke-dasharray:none;stroke-dashoffset:0;stroke-opacity:1;paint-order:markers stroke fill"
   id="rect3958"
   width="2095.1885"
   height="49.885441"
   x="689.72046"
   y="23.858255" /><rect
   style="opacity:1;fill:#000000;fill-opacity:1;stroke:none;stroke-width:8.0012598;stroke-linecap:round;stroke-linejoin:round;stroke-miterlimit:23.39999962;stroke-dasharray:none;stroke-dashoffset:0;stroke-opacity:1;paint-order:markers stroke fill"
   id="rect3958-2"
   width="2095.1885"
   height="49.885441"
   x="687.55157"
   y="432.70197" /></svg>